<?xml version="1.0" encoding="utf-8"?>
<?xml-stylesheet type="text/xsl" href="rss1.xsl"?>
<rss version="2.0" xmlns:atom="http://www.w3.org/2005/Atom" xmlns:content="http://purl.org/rss/1.0/modules/content/" xmlns:dc="http://purl.org/dc/elements/1.1/" xmlns:media="http://search.yahoo.com/mrss/">
<channel>
 <title>Getty</title>
 <link>http://www.gettyimg.com/</link>
 <atom:link href="http://www.gettyimg.com/" rel="self" type="application/rss+xml" />

 
                <item>
                <title><![CDATA[【PRORES SD】Taylor_Swift_Teardrops_On_My_Guitar_POP_Version]]></title>
                <link><![CDATA[https://sharemania.us/threads/taylor_swift_teardrops_on_my_guitar_pop_version.220835/]]></link>
                <description><![CDATA[<article>
<blockquote class="messageText SelectQuoteContainer ugc baseHtml">
<img src="https://thumbs2.imgbox.com/04/49/rVfIqLUQ_t.jpg" class="bbCodeImage LbImage" alt="[​IMG]" data-url="https://thumbs2.imgbox.com/04/49/rVfIqLUQ_t.jpg" style=""> <br>
<div class="ToggleTriggerAnchor bbCodeSpoilerContainer">
<button type="button" class="button bbCodeSpoilerButton ToggleTrigger Tooltip JsOnly" data-target="> .SpoilerTarget"><span>Spoiler: <span class="SpoilerTitle">mediainfo</span></span></button>
<div class="SpoilerTarget bbCodeSpoilerText">General<br>
Complete name : F:\Copy_of_Taylor_Swift_-_Teardrops_On_My_Guitar__POP_Version_U.mov<br>
Format : MPEG-4<br>
Format profile : QuickTime<br>
Codec ID : qt 0000.02 (qt )<br>
File size : 1.40 GiB<br>
Duration : 3 min 55 s<br>
Overall bit rate mode : Variable<br>
Overall bit rate : 50.8 Mb/s<br>
Writing application : Lavf57.19.100<br>
<br>
Video<br>
ID : 1<br>
Format : ProRes<br>
Format version : Version 0<br>
Format profile : 422 HQ<br>
Codec ID : apch<br>
Duration : 3 min 55 s<br>
Bit rate mode : Variable<br>
Bit rate : 48.7 Mb/s<br>
Width : 720 pixels<br>
Height : 480 pixels<br>
Display aspect ratio : 4:3<br>
Frame rate mode : Constant<br>
Frame rate : 29.970 (30000/1001) FPS<br>
Standard : NTSC<br>
Color space : YUV<br>
Chroma subsampling : 4:2:2<br>
Scan type : Progressive<br>
Bits/(Pixel*Frame) : 4.699<br>
Stream size : 1.34 GiB (96%)<br>
Writing library : fmpg<br>
Language : English<br>
Matrix coefficients : BT.601<br>
<br>
Audio<br>
ID : 2<br>
Format : PCM<br>
Format settings : Little / Signed<br>
Codec ID : in24<br>
Duration : 3 min 40 s<br>
Bit rate mode : Constant<br>
Bit rate : 2 304 kb/s<br>
Channel(s) : 2 channels<br>
Channel layout : L R<br>
Sampling rate : 48.0 kHz<br>
Bit depth : 24 bits<br>
Stream size : 60.7 MiB (4%)<br>
Language : English<br>
Default : Yes<br>
Alternate group : 1</div>
</div>Pt.1<br>
<div class="bbCodeBlock bbCodeVfcHH HiddenContent">
<div class="attribution type">Hidden Content:</div>
<blockquote>You must reply before you can see the hidden data contained here.</blockquote>
</div>Pt.zip<br>
<div class="bbCodeBlock bbCodeVfcHH HiddenContent">
<div class="attribution type">Hidden Content:</div>
<blockquote>You must reply before you can see the hidden data contained here.</blockquote>
</div>
<div class="messageTextEndMarker">&nbsp;</div>
</blockquote>
</article>]]></description>
                <author><![CDATA[huyt6gg]]></author>
                </item>

                
                <item>
                <title><![CDATA[【Albums (lossy)】360 RA - Daft Punk - Random Access Memories (10th Anniversary Edition) [WAV | 7.1.4 |  16bit@48kHz |9 216 kb]]]></title>
                <link><![CDATA[https://sharemania.us/threads/daft-punk-random-access-memories-10th-anniversary-edition-wav-7-1-4-16bit-48khz-9-216-kb.220833/]]></link>
                <description><![CDATA[<article>
<blockquote class="messageText SelectQuoteContainer ugc baseHtml">
<img src="https://a5.mzstatic.com/us/r1000/0/Music116/v4/86/b1/92/86b192cf-ceb6-6e51-9361-dc4a35e95d22/196589921154.jpg" class="bbCodeImage LbImage" alt="[​IMG]" data-url="https://a5.mzstatic.com/us/r1000/0/Music116/v4/86/b1/92/86b192cf-ceb6-6e51-9361-dc4a35e95d22/196589921154.jpg" style=""><br>
<br>
<b>Album: Random Access Memories (10th Anniversary Edition)<br>
Artist: Daft Punk<br>
Genre: Dance<br>
Release date: 12/05/2023<br>
Format: .wav 7.1.4 Decoded from 360 Reality Audio stream </b><br>
<br>
<div class="bbCodeBlock bbCodeVfcHH HiddenContent">
<div class="attribution type">Hidden Content:</div>
<blockquote>You must reply before you can see the hidden data contained here.</blockquote>
</div>
<div class="messageTextEndMarker">&nbsp;</div>
</blockquote>
</article>]]></description>
                <author><![CDATA[SonMaxime]]></author>
                </item>

                
                <item>
                <title><![CDATA[【Unreleased/Unofficial (lossy)】PACK - Kylie Minogue - Various Demos and Leaks 2023]]></title>
                <link><![CDATA[https://sharemania.us/threads/kylie-minogue-various-demos-and-leaks-2023.220834/]]></link>
                <description><![CDATA[<article>
<blockquote class="messageText SelectQuoteContainer ugc baseHtml">
<img src="https://i.postimg.cc/76jWmXQF/IMG-9946.jpg" class="bbCodeImage LbImage" alt="[​IMG]" data-url="https://i.postimg.cc/76jWmXQF/IMG-9946.jpg" style=""><br>
Kylie Minogue - Various Demos and Leaks 2023<br>
A Rose is a Rose<br>
Disco (Scrapped Title Track)<br>
Drum<br>
Eyes on You* Note worthy<br>
Feel The Love<br>
Golden (Demo)<br>
Loneliest Kind of Lover<br>
Padam Padam<br>
People<br>
Piano<br>
Sad Song<br>
Tears of Joy<br>
<br>
<div class="bbCodeBlock bbCodeVfcHH HiddenContent">
<div class="attribution type">Hidden Content:</div>
<blockquote>You must either reply or click 'Like' to see the hidden information contained here.</blockquote>
</div>
<div class="messageTextEndMarker">&nbsp;</div>
</blockquote>
</article>]]></description>
                <author><![CDATA[o7m0]]></author>
                </item>

                </channel></rss>